<?xml version="1.0" encoding="UTF-8" standalone="no"?>
<svg
   xmlns:dc="http://purl.org/dc/elements/1.1/"
   xmlns:cc="http://creativecommons.org/ns#"
   xmlns:rdf="http://www.w3.org/1999/02/22-rdf-syntax-ns#"
   xmlns:svg="http://www.w3.org/2000/svg"
   xmlns="http://www.w3.org/2000/svg"
   xmlns:sodipodi="http://sodipodi.sourceforge.net/DTD/sodipodi-0.dtd"
   xmlns:inkscape="http://www.inkscape.org/namespaces/inkscape"
   version="1.1"
   id="Layer_1"
   x="0px"
   y="0px"
   viewBox="0 0 496 496"
   style="enable-background:new 0 0 496 496;"
   xml:space="preserve"
   width="512px"
   height="512px"
   class=""
   sodipodi:docname="ambulancia.svg"
   inkscape:version="0.92.3 (2405546, 2018-03-11)"
   inkscape:export-filename="G:\Brayan Carcamo Luna\Pictures\iconCiru.png"
   inkscape:export-xdpi="450"
   inkscape:export-ydpi="450"><metadata
   id="metadata167"><rdf:RDF><cc:Work
       rdf:about=""><dc:format>image/svg+xml</dc:format><dc:type
         rdf:resource="http://purl.org/dc/dcmitype/StillImage" /><dc:title /></cc:Work></rdf:RDF></metadata><defs
   id="defs165"><marker
     inkscape:stockid="Arrow1Lstart"
     orient="auto"
     refY="0.0"
     refX="0.0"
     id="Arrow1Lstart"
     style="overflow:visible"
     inkscape:isstock="true"><path
       id="path5270"
       d="M 0.0,0.0 L 5.0,-5.0 L -12.5,0.0 L 5.0,5.0 L 0.0,0.0 z "
       style="fill-rule:evenodd;stroke:#ffffff;stroke-width:1pt;stroke-opacity:1;fill:#ffff00;fill-opacity:1"
       transform="scale(0.8) translate(12.5,0)" /></marker></defs><sodipodi:namedview
   pagecolor="#ffffff"
   bordercolor="#666666"
   borderopacity="1"
   objecttolerance="10"
   gridtolerance="10"
   guidetolerance="10"
   inkscape:pageopacity="0"
   inkscape:pageshadow="2"
   inkscape:window-width="1440"
   inkscape:window-height="837"
   id="namedview163"
   showgrid="false"
   inkscape:zoom="1.84375"
   inkscape:cx="274.94332"
   inkscape:cy="229.08071"
   inkscape:window-x="-8"
   inkscape:window-y="-8"
   inkscape:window-maximized="1"
   inkscape:current-layer="Layer_1" /><g
   id="g160"
   transform="translate(0.72906799,0.32862549)"><path
     style="fill:#bc043d"
     d="m 367.075,128 c 0,4 -11.2,8 -15.2,8 h -65.6 c -4,0 -15.2,-3.2 -15.2,-8 l 7.2,-19.2 c 0,-4 3.2,-7.2 7.2,-7.2 h 66.4 c 4,0 7.2,3.2 7.2,7.2 z"
     data-original="#BC043D"
     class=""
     id="path2"
     inkscape:connector-curvature="0" /><path
     style="fill:#9b053b"
     d="m 367.075,128 -7.2,-19.2 c 0,-0.8 0,-1.6 0,-1.6 h -80 c 0,0.8 0,1.6 0,1.6 l -8.8,19.2 c 0,4 11.2,8 15.2,8 h 65.6 c 4,0 15.2,-3.2 15.2,-8 z"
     data-original="#9B053B"
     class=""
     id="path4"
     inkscape:connector-curvature="0" /><path
     style="fill:#e2eaea"
     d="m 333.0125,123.2 c 0,0.8 -0.8,2.4 -2.4,2.4 h -20.8 c -0.8,0 -2.4,-0.8 -2.4,-2.4 l 4,-20.8 c 0,-0.8 0.8,-2.4 2.4,-2.4 h 12 c 0.8,0 2.4,0.8 2.4,2.4 z"
     data-original="#D3DDDD"
     class=""
     data-old_color="#E3EAEA"
     id="path6"
     inkscape:connector-curvature="0" /><path
     style="fill:#db0940"
     d="m 19.2,323.2 c 0,4.8 -4,4 -8,4 v 0 c -4.8,0 -8,-3.2 -8,-8 v -36 c 0,-4.8 3.2,-8 8,-8 v 0 c 4.8,0 8,3.2 8,8 z"
     data-original="#DB0940"
     class=""
     id="path8"
     inkscape:connector-curvature="0" /><path
     style="fill:#bc043d"
     d="m 11.2,275.2 v 0 c 4.8,0 8,3.2 8,8 v 40 c 0,4.8 -4,4 -8,4 v 0"
     data-original="#BC043D"
     class=""
     id="path10"
     inkscape:connector-curvature="0" /><g
     id="g16">
	<path
   style="fill:#e1eaea"
   d="m 472,268 c 0,8.8 -7.2,16 -16,16 h -43.2 c -8.8,0 -16,-7.2 -16,-16 v -10.4 c 0,-8.8 7.2,-16 16,-16 H 456 c 8.8,0 16,7.2 16,16 z"
   data-original="#E1EAEA"
   class=""
   id="path12"
   inkscape:connector-curvature="0" />
	<path
   style="fill:#b2bbc1;fill-opacity:1"
   d="m 376.8,164 c 0,9.6 -7.2,16.8 -16.8,16.8 H 38.4 c -9.6,0 -16.8,-7.2 -16.8,-16.8 V 136.8 C 21.6,128 28.8,120 38.4,120 H 360 c 9.6,0 16.8,7.2 16.8,16.8 z"
   data-original="#E1EAEA"
   class=""
   id="path14"
   inkscape:connector-curvature="0" />
</g><path
     style="fill:#e2eaea"
     d="m 484,260.8 c 0,-6.4 -5.6,-12 -12,-12 h -35.2 l -42.4,-96 c 0,-8.8 -7.2,-16 -16,-16 H 376 c -2.4,-6.4 -1.725,-8.8 -8.925,-8.8 L 45.6,133.6 c -8.8,0 -23.2,-2.4 -24,6.4 -4,3.2 -6.4,7.2 -6.4,12.8 v 96.8 c -4.8,1.6 -8.8,5.6 -8.8,11.2 v 78.4 c 0,6.4 5.6,12 12,12 H 480 c 6.4,0 12,-5.6 12,-12 z"
     data-original="#D3DDDD"
     class=""
     data-old_color="#E3EAEA"
     id="path18"
     inkscape:connector-curvature="0"
     sodipodi:nodetypes="csccsccccscsssscc" /><path
     style="fill:#e2eaea"
     d="M 488.8,306.4 485.6,276 H 6.4 v 63.2 c 0,6.4 5.6,12 12,12 H 480 c 3.2,0 6.4,-1.6 8.8,-4 z"
     data-original="#C9D3D3"
     class="active-path"
     data-old_color="#C9D3D3"
     id="path20"
     inkscape:connector-curvature="0" /><path
     style="fill:#241c1c;stroke-width:0.83478796"
     d="m 496,357.62503 c 0,3.34498 -3.2,5.57497 -8,5.57497 H 8 c -4.8,0 -8,-2.22999 -8,-5.57497 v -3.34498 c 0,-3.34498 3.2,-5.57497 8,-5.57497 h 480 c 4.8,0 8,2.22999 8,5.57497 z"
     data-original="#ADC4C3"
     class=""
     id="path22"
     inkscape:connector-curvature="0" /><path
     d="m 49.6,348.8 c 0,-27.2 22.4,-49.6 49.6,-49.6 27.2,0 49.6,22.4 49.6,49.6"
     data-original="#000000"
     class=""
     id="path24"
     inkscape:connector-curvature="0" /><path
     style="fill:#adc4c3"
     d="m 151.2,348.8 h -4 c 0,-26.4 -21.6,-48 -48,-48 -26.4,0 -48,21.6 -48,48 h -4 c 0,-28.8 23.2,-52 52,-52 28.8,0 52,24 52,52 z"
     data-original="#ADC4C3"
     class=""
     id="path26"
     inkscape:connector-curvature="0" /><circle
     style="fill:#203547"
     cx="99.199997"
     cy="351.20001"
     r="44.799999"
     data-original="#203547"
     class=""
     id="circle28" /><path
     style="fill:#122130"
     d="m 131.2,319.2 c 17.6,17.6 17.6,45.6 0,63.2 -17.6,17.6 -45.6,17.6 -63.2,0"
     data-original="#122130"
     id="path30"
     inkscape:connector-curvature="0" /><circle
     style="fill:#6e7577"
     cx="99.199997"
     cy="351.20001"
     r="28"
     data-original="#6E7577"
     id="circle32" /><path
     style="fill:#4c5456"
     d="m 119.2,331.2 c 11.2,11.2 11.2,28.8 0,40 -11.2,11.2 -28.8,11.2 -40,0"
     data-original="#4C5456"
     id="path34"
     inkscape:connector-curvature="0" /><circle
     style="fill:#ced8dd"
     cx="99.199997"
     cy="351.20001"
     r="24.799999"
     data-original="#CED8DD"
     class=""
     id="circle36" /><path
     style="fill:#b2bbc1"
     d="m 116.8,333.6 c 9.6,9.6 9.6,25.6 0,35.2 -9.6,9.6 -25.6,9.6 -35.2,0"
     data-original="#B2BBC1"
     class=""
     id="path38"
     inkscape:connector-curvature="0" /><path
     style="opacity:0.2;fill:#888f91;enable-background:new"
     d="m 110.4,351.2 c 0,6.4 -4.8,13.6 -11.2,13.6 -6.4,0 -11.2,-7.2 -11.2,-13.6 0,-6.4 4.8,-11.2 11.2,-11.2 6.4,-0.8 11.2,4.8 11.2,11.2 z"
     data-original="#888F91"
     id="path40"
     inkscape:connector-curvature="0" /><circle
     style="fill:#e7eff2"
     cx="99.199997"
     cy="351.20001"
     r="11.2"
     data-original="#E7EFF2"
     id="circle42" /><path
     style="fill:#dae6ea"
     d="m 99.2,339.2 c 6.4,0 11.2,4.8 11.2,11.2 0,6.4 -4.8,11.2 -11.2,11.2"
     data-original="#DAE6EA"
     class=""
     id="path44"
     inkscape:connector-curvature="0" /><path
     style="fill:#666e70"
     d="m 99.2,326.4 c -0.8,0 -2.4,0 -3.2,0 0.8,3.2 1.6,6.4 3.2,6.4 1.6,0 3.2,-2.4 3.2,-6.4 -0.8,0 -2.4,0 -3.2,0 z"
     data-original="#666E70"
     id="path46"
     inkscape:connector-curvature="0" /><path
     style="fill:#535a5b"
     d="m 99.2,332.8 c 1.6,0 3.2,-2.4 3.2,-6.4 -0.8,0 -2.4,0 -3.2,0"
     data-original="#535A5B"
     id="path48"
     inkscape:connector-curvature="0" /><path
     style="fill:#666e70"
     d="m 96,375.2 c 2.4,0 4.8,0 6.4,0 -0.8,-3.2 -1.6,-6.4 -3.2,-6.4 -1.6,0.8 -2.4,3.2 -3.2,6.4 z"
     data-original="#666E70"
     id="path50"
     inkscape:connector-curvature="0" /><path
     style="fill:#535a5b"
     d="m 102.4,375.2 c -0.8,-3.2 -1.6,-6.4 -3.2,-6.4"
     data-original="#535A5B"
     id="path52"
     inkscape:connector-curvature="0" /><path
     style="fill:#666e70"
     d="m 80,336 c 3.2,2.4 5.6,3.2 6.4,1.6 0.8,-0.8 0,-4 -1.6,-6.4 -2.4,1.6 -4,3.2 -4.8,4.8 z"
     data-original="#666E70"
     id="path54"
     inkscape:connector-curvature="0" /><path
     style="fill:#535a5b"
     d="m 86.4,338.4 c 0.8,-0.8 0,-4 -1.6,-6.4"
     data-original="#535A5B"
     id="path56"
     inkscape:connector-curvature="0" /><path
     style="fill:#666e70"
     d="m 119.2,365.6 c -3.2,-2.4 -5.6,-3.2 -6.4,-1.6 -0.8,0.8 0,4 1.6,6.4 0.8,-0.8 1.6,-1.6 2.4,-2.4 0.8,0 1.6,-0.8 2.4,-2.4 z"
     data-original="#666E70"
     id="path58"
     inkscape:connector-curvature="0" /><path
     style="fill:#535a5b"
     d="m 116.8,368.8 c 0.8,-0.8 1.6,-1.6 2.4,-2.4 -3.2,-2.4 -5.6,-3.2 -6.4,-1.6"
     data-original="#535A5B"
     id="path60"
     inkscape:connector-curvature="0" /><path
     style="fill:#666e70"
     d="m 75.2,354.4 c 3.2,-0.8 6.4,-1.6 6.4,-3.2 0,-1.6 -2.4,-3.2 -6.4,-3.2 0,0.8 0,2.4 0,3.2 -0.8,0.8 -0.8,2.4 0,3.2 z"
     data-original="#666E70"
     id="path62"
     inkscape:connector-curvature="0" /><path
     style="fill:#535a5b"
     d="m 80.8,351.2 c 0,-1.6 -2.4,-3.2 -6.4,-3.2 0,0.8 0,2.4 0,3.2"
     data-original="#535A5B"
     id="path64"
     inkscape:connector-curvature="0" /><path
     style="fill:#666e70"
     d="m 117.6,351.2 c 0,1.6 2.4,3.2 6.4,3.2 0,-2.4 0,-4.8 0,-6.4 -4,0 -6.4,1.6 -6.4,3.2 z"
     data-original="#666E70"
     id="path66"
     inkscape:connector-curvature="0" /><path
     style="fill:#535a5b"
     d="m 124,348 c -3.2,0.8 -6.4,1.6 -6.4,3.2"
     data-original="#535A5B"
     id="path68"
     inkscape:connector-curvature="0" /><path
     style="fill:#666e70"
     d="m 80,365.6 c 1.6,1.6 3.2,3.2 4.8,4.8 2.4,-3.2 3.2,-5.6 1.6,-6.4 -0.8,-0.8 -4,0 -6.4,1.6 z"
     data-original="#666E70"
     id="path70"
     inkscape:connector-curvature="0" /><path
     style="fill:#535a5b"
     d="m 84,370.4 c 2.4,-3.2 3.2,-5.6 1.6,-6.4"
     data-original="#535A5B"
     id="path72"
     inkscape:connector-curvature="0" /><path
     style="fill:#666e70"
     d="m 114.4,331.2 c -2.4,3.2 -3.2,5.6 -1.6,6.4 0.8,0.8 4,0 6.4,-1.6 -1.6,-1.6 -3.2,-3.2 -4.8,-4.8 z"
     data-original="#666E70"
     id="path74"
     inkscape:connector-curvature="0" /><path
     style="fill:#535a5b"
     d="m 114.4,331.2 c -2.4,3.2 -3.2,5.6 -1.6,6.4"
     data-original="#535A5B"
     id="path76"
     inkscape:connector-curvature="0" /><path
     d="m 344,348.8 c 0,-27.2 22.4,-49.6 49.6,-49.6 27.2,0 49.6,22.4 49.6,49.6"
     data-original="#000000"
     class=""
     id="path78"
     inkscape:connector-curvature="0" /><path
     style="fill:#adc4c3"
     d="m 445.6,348.8 h -4 c 0,-26.4 -21.6,-48 -48,-48 -26.4,0 -48,21.6 -48,48 h -4 c 0,-28.8 23.2,-52 52,-52 28.8,0 52,24 52,52 z"
     data-original="#ADC4C3"
     class=""
     id="path80"
     inkscape:connector-curvature="0" /><circle
     style="fill:#203547"
     cx="394.39999"
     cy="351.20001"
     r="44.799999"
     data-original="#203547"
     class=""
     id="circle82" /><path
     style="fill:#122130"
     d="m 425.6,319.2 c 17.6,17.6 17.6,45.6 0,63.2 -17.6,17.6 -45.6,17.6 -63.2,0"
     data-original="#122130"
     id="path84"
     inkscape:connector-curvature="0" /><circle
     style="fill:#6e7577"
     cx="394.39999"
     cy="351.20001"
     r="28"
     data-original="#6E7577"
     id="circle86" /><path
     style="fill:#4c5456"
     d="m 413.6,331.2 c 11.2,11.2 11.2,28.8 0,40 -11.2,11.2 -28.8,11.2 -40,0"
     data-original="#4C5456"
     id="path88"
     inkscape:connector-curvature="0" /><circle
     style="fill:#ced8dd"
     cx="394.39999"
     cy="351.20001"
     r="24.799999"
     data-original="#CED8DD"
     class=""
     id="circle90" /><path
     style="fill:#b2bbc1"
     d="m 411.2,333.6 c 9.6,9.6 9.6,25.6 0,35.2 -9.6,9.6 -25.6,9.6 -35.2,0"
     data-original="#B2BBC1"
     class=""
     id="path92"
     inkscape:connector-curvature="0" /><path
     style="opacity:0.2;fill:#888f91;enable-background:new"
     d="m 405.6,351.2 c 0,6.4 -4.8,13.6 -11.2,13.6 -6.4,0 -11.2,-7.2 -11.2,-13.6 0,-6.4 4.8,-11.2 11.2,-11.2 6.4,0 11.2,4.8 11.2,11.2 z"
     data-original="#888F91"
     id="path94"
     inkscape:connector-curvature="0" /><circle
     style="fill:#e7eff2"
     cx="394.39999"
     cy="351.20001"
     r="11.2"
     data-original="#E7EFF2"
     id="circle96" /><path
     style="fill:#dae6ea"
     d="m 394.4,339.2 c 6.4,0 11.2,4.8 11.2,11.2 0,6.4 -4.8,11.2 -11.2,11.2"
     data-original="#DAE6EA"
     class=""
     id="path98"
     inkscape:connector-curvature="0" /><path
     style="fill:#666e70"
     d="m 394.4,326.4 c -0.8,0 -2.4,0 -3.2,0 0.8,3.2 1.6,6.4 3.2,6.4 1.6,0 3.2,-2.4 3.2,-6.4 -1.6,0 -2.4,0 -3.2,0 z"
     data-original="#666E70"
     id="path100"
     inkscape:connector-curvature="0" /><path
     style="fill:#535a5b"
     d="m 394.4,332.8 c 1.6,0 3.2,-2.4 3.2,-6.4 -0.8,0 -2.4,0 -3.2,0"
     data-original="#535A5B"
     id="path102"
     inkscape:connector-curvature="0" /><path
     style="fill:#666e70"
     d="m 390.4,375.2 c 2.4,0 4.8,0 6.4,0 -0.8,-3.2 -1.6,-6.4 -3.2,-6.4 -0.8,0.8 -2.4,3.2 -3.2,6.4 z"
     data-original="#666E70"
     id="path104"
     inkscape:connector-curvature="0" /><path
     style="fill:#535a5b"
     d="m 397.6,375.2 c -0.8,-3.2 -1.6,-6.4 -3.2,-6.4"
     data-original="#535A5B"
     id="path106"
     inkscape:connector-curvature="0" /><path
     style="fill:#666e70"
     d="m 374.4,336 c 3.2,2.4 5.6,3.2 6.4,1.6 0.8,-0.8 0,-4 -1.6,-6.4 -1.6,1.6 -3.2,3.2 -4.8,4.8 z"
     data-original="#666E70"
     id="path108"
     inkscape:connector-curvature="0" /><path
     style="fill:#535a5b"
     d="m 380.8,338.4 c 0.8,-0.8 0,-4 -1.6,-6.4"
     data-original="#535A5B"
     id="path110"
     inkscape:connector-curvature="0" /><path
     style="fill:#666e70"
     d="m 413.6,365.6 c -3.2,-2.4 -5.6,-3.2 -6.4,-1.6 -0.8,0.8 0,4 1.6,6.4 0.8,-0.8 1.6,-1.6 2.4,-2.4 0.8,0 1.6,-0.8 2.4,-2.4 z"
     data-original="#666E70"
     id="path112"
     inkscape:connector-curvature="0" /><path
     style="fill:#535a5b"
     d="m 411.2,368.8 c 0.8,-0.8 1.6,-1.6 2.4,-2.4 -3.2,-2.4 -5.6,-3.2 -6.4,-1.6"
     data-original="#535A5B"
     id="path114"
     inkscape:connector-curvature="0" /><path
     style="fill:#666e70"
     d="m 369.6,354.4 c 3.2,-0.8 6.4,-1.6 6.4,-3.2 0,-1.6 -2.4,-3.2 -6.4,-3.2 0,0.8 0,2.4 0,3.2 0,0.8 0,2.4 0,3.2 z"
     data-original="#666E70"
     id="path116"
     inkscape:connector-curvature="0" /><path
     style="fill:#535a5b"
     d="m 376,351.2 c 0,-1.6 -2.4,-3.2 -6.4,-3.2 0,0.8 0,2.4 0,3.2"
     data-original="#535A5B"
     id="path118"
     inkscape:connector-curvature="0" /><path
     style="fill:#666e70"
     d="m 412,351.2 c 0,1.6 2.4,3.2 6.4,3.2 0,-2.4 0,-4.8 0,-6.4 -3.2,0 -6.4,1.6 -6.4,3.2 z"
     data-original="#666E70"
     id="path120"
     inkscape:connector-curvature="0" /><path
     style="fill:#535a5b"
     d="m 418.4,348 c -3.2,0.8 -6.4,1.6 -6.4,3.2"
     data-original="#535A5B"
     id="path122"
     inkscape:connector-curvature="0" /><path
     style="fill:#666e70"
     d="m 374.4,365.6 c 1.6,1.6 3.2,3.2 4.8,4.8 2.4,-3.2 3.2,-5.6 1.6,-6.4 -0.8,-0.8 -3.2,0 -6.4,1.6 z"
     data-original="#666E70"
     id="path124"
     inkscape:connector-curvature="0" /><path
     style="fill:#535a5b"
     d="m 379.2,370.4 c 2.4,-3.2 3.2,-5.6 1.6,-6.4"
     data-original="#535A5B"
     id="path126"
     inkscape:connector-curvature="0" /><path
     style="fill:#666e70"
     d="m 408.8,331.2 c -2.4,3.2 -3.2,5.6 -1.6,6.4 0.8,0.8 4,0 6.4,-1.6 -1.6,-1.6 -3.2,-3.2 -4.8,-4.8 z"
     data-original="#666E70"
     id="path128"
     inkscape:connector-curvature="0" /><path
     style="fill:#535a5b"
     d="m 408.8,331.2 c -2.4,3.2 -3.2,5.6 -1.6,6.4"
     data-original="#535A5B"
     id="path130"
     inkscape:connector-curvature="0" /><path
     style="fill:#101111"
     d="m 433.6,240.8 -36.8,-84 H 312 c -4.8,0 -8.8,4 -8.8,8.8 v 67.2 c 0,4.8 4,8.8 8.8,8.8 h 119.2 c 0.8,0 1.6,0 2.4,-0.8 z"
     data-original="#51859B"
     class=""
     data-old_color="#121313"
     id="path132"
     inkscape:connector-curvature="0" /><g
     id="g138">
	<polygon
   style="fill:#81b6c9"
   points="318.4,156.8 302.4,172.8 302.4,196 341.6,156.8 "
   data-original="#81B6C9"
   class=""
   id="polygon134" />
	<path
   style="fill:#81b6c9"
   d="m 396,241.6 h 35.2 c 0.8,0 1.6,0 2.4,-0.8 l -11.2,-25.6 z"
   data-original="#81B6C9"
   class=""
   id="path136"
   inkscape:connector-curvature="0" />
</g><path
     style="fill:#e2eaea"
     d="m 400,247.2 c 0.8,2.4 -0.8,4.8 -3.2,5.6 v 0 c -2.4,0.8 -4.8,-0.8 -5.6,-3.2 L 364,144 c -0.8,-2.4 0.8,-4.8 3.2,-5.6 v 0 c 2.4,-0.8 4.8,0.8 5.6,3.2 z"
     data-original="#D3DDDD"
     class=""
     data-old_color="#E3EAEA"
     id="path140"
     inkscape:connector-curvature="0" /><g
     id="g150">
	<path
   style="fill:#ddeded"
   d="m 176.8,311.2 c 0,0.8 -0.8,1.6 -1.6,1.6 h -10.4 c -0.8,0 -1.6,-0.8 -1.6,-1.6 v 0 c 0,-0.8 0.8,-1.6 1.6,-1.6 h 10.4 c 0.8,0 1.6,0.8 1.6,1.6 z"
   data-original="#DDEDED"
   id="path144"
   inkscape:connector-curvature="0" />
	<path
   style="fill:#ddeded"
   d="m 176.8,320 c 0,0.8 -0.8,1.6 -1.6,1.6 h -10.4 c -0.8,0 -1.6,-0.8 -1.6,-1.6 v 0 c 0,-0.8 0.8,-1.6 1.6,-1.6 h 10.4 c 0.8,0 1.6,0 1.6,1.6 z"
   data-original="#DDEDED"
   id="path146"
   inkscape:connector-curvature="0" />
	<path
   style="fill:#ddeded"
   d="m 176.8,328 c 0,0.8 -0.8,1.6 -1.6,1.6 h -10.4 c -0.8,0 -1.6,-0.8 -1.6,-1.6 v 0 c 0,-0.8 0.8,-1.6 1.6,-1.6 h 10.4 c 0.8,0 1.6,0.8 1.6,1.6 z"
   data-original="#DDEDED"
   id="path148"
   inkscape:connector-curvature="0" />
</g><path
     id="SVGCleanerId_0"
     style="fill:#ff0000;stroke-width:0.50218427"
     d="M 103.95336,184.50299 H 87.739787 v -14.37458 c 0,-3.02622 -2.986708,-5.67419 -6.40009,-5.67419 h -6.826761 c -3.413381,0 -6.400091,2.64797 -6.400091,5.67419 v 14.37458 H 52.752632 c -3.413382,0 -6.40009,2.64795 -6.40009,5.67416 v 6.05246 c 0,3.02624 2.986708,5.67418 6.40009,5.67418 h 16.213559 v 14.37457 c 0,3.02623 2.986709,5.67418 6.40009,5.67418 h 6.826761 c 3.413381,0 6.40009,-2.64795 6.40009,-5.67418 V 201.90379 H 104.8067 c 3.41338,0 6.40009,-2.64794 6.40009,-5.67418 v -6.05246 c -0.85334,-3.40448 -3.84005,-5.67416 -7.25343,-5.67416 z"
     data-original="#BC043D"
     class=""
     inkscape:connector-curvature="0" /><g
     id="g158">
	
</g></g> <g
   inkscape:groupmode="layer"
   id="layer3"
   inkscape:label="Layer 0"><rect
     id="rect173"
     width="479.20001"
     height="16.440678"
     x="6.3999939"
     y="263.76273"
     style="fill:#d40000;stroke-width:0.94304961" /><rect
     id="rect173-1"
     width="347.84409"
     height="11.186442"
     x="24.752542"
     y="128.81357"
     style="fill:#d40000;stroke-width:0.66275734" /></g><g
   inkscape:groupmode="layer"
   id="layer1"
   inkscape:label="Layer 1"><path
     inkscape:connector-curvature="0"
     style="fill:#ffa300;stroke-width:1.00000012"
     d="m 490.4,300 c 0,4 -3.2,6.4 -6.4,6.4 v 0 c -4,0 -6.4,-3.2 -6.4,-6.4 v -32.8 c 0,-4 3.2,-6.4 6.4,-6.4 v 0 c 4,0 6.4,3.2 6.4,6.4 z"
     data-original="#FFA300"
     id="path152" /><path
     style="fill:#d40000;stroke:#d40000;stroke-width:0.96875px;stroke-linecap:butt;stroke-linejoin:miter;stroke-opacity:1"
     d="M 24.752543,128.81356 21.6,140 v 0 0 L 15.762711,155.52542 15.2,249.6 6.3999939,263.76273 6.4,276 l 4.8,-0.8 v 0 0 0 l 16.122034,1.17289 -8.40678,-8.40679 15.762712,-132.40678 z"
     id="path5024"
     inkscape:connector-curvature="0" /></g><g
   inkscape:groupmode="layer"
   id="layer4"
   inkscape:label="Layer 2"
   style="display:inline"><path
     inkscape:connector-curvature="0"
     style="fill:#ff7300;stroke-width:1.00000024"
     d="m 484,306.4 v 0 c -4,0 -6.4,-3.2 -6.4,-6.4 v -32.8 c 0,-4 3.2,-6.4 6.4,-6.4 v 0"
     data-original="#FF7300"
     class=""
     id="path154" /><polygon
     transform="matrix(0,-1.1072293,1,0,270.2,615.95454)"
     style="fill:#e2eaea;fill-opacity:1"
     points="318.4,156.8 302.4,172.8 302.4,196 341.6,156.8 "
     data-original="#81B6C9"
     class=""
     id="polygon134-4-8" /><polygon
     transform="matrix(0,-1.1072293,1,0,226.65,616.20453)"
     style="fill:#e2eaea;fill-opacity:1"
     points="302.4,172.8 302.4,196 341.6,156.8 318.4,156.8 "
     data-original="#81B6C9"
     class=""
     id="polygon134-4-8-8" /><polygon
     transform="matrix(0,-1.1072293,0.78554134,0,202.82458,616.61258)"
     style="fill:#e2eaea;fill-opacity:1"
     points="341.6,156.8 318.4,156.8 302.4,172.8 302.4,196 "
     data-original="#81B6C9"
     class=""
     id="polygon134-4-8-86" /><polygon
     transform="matrix(0,-1.1072293,1,0,211.52691,616.25135)"
     style="display:inline;fill:#e2eaea;fill-opacity:1"
     points="302.4,196 341.6,156.8 318.4,156.8 302.4,172.8 "
     data-original="#81B6C9"
     class=""
     id="polygon134-4-8-8-0" /><polygon
     transform="matrix(0,-1.1072293,0.78554134,0,160.69216,616.05432)"
     style="display:inline;fill:#e2eaea;fill-opacity:1"
     points="302.4,172.8 302.4,196 341.6,156.8 318.4,156.8 "
     data-original="#81B6C9"
     class=""
     id="polygon134-4-8-86-6" /><polygon
     transform="matrix(0,-1.1072293,0.78554134,0,116.62225,615.39754)"
     style="display:inline;fill:#e2eaea;fill-opacity:1"
     points="341.6,156.8 318.4,156.8 302.4,172.8 302.4,196 "
     data-original="#81B6C9"
     class=""
     id="polygon134-4-8-86-6-3" /></g><g
   inkscape:groupmode="layer"
   id="layer5"
   inkscape:label="Layer 3"><path
     id="SVGCleanerId_0-9"
     style="fill:#ff0000;stroke-width:0.23277499"
     d="m 403.47853,255.19545 h -7.28355 v -6.87508 c 0,-1.44737 -1.3417,-2.71384 -2.87508,-2.71384 h -3.06676 c -1.53337,0 -2.87507,1.26647 -2.87507,2.71384 v 6.87508 h -6.90021 c -1.53338,0 -2.87508,1.26646 -2.87508,2.71384 v 2.89476 c 0,1.44739 1.3417,2.71386 2.87508,2.71386 h 7.28355 v 6.87506 c 0,1.44738 1.3417,2.71384 2.87508,2.71384 h 3.06676 c 1.53336,0 2.87508,-1.26646 2.87508,-2.71384 v -6.87506 h 7.28355 c 1.53338,0 2.87508,-1.26647 2.87508,-2.71386 v -2.89476 c -0.38335,-1.6283 -1.72506,-2.71384 -3.25843,-2.71384 z"
     data-original="#BC043D"
     class=""
     inkscape:connector-curvature="0" /><path
     style="fill:#8e8e8e;stroke-width:1.00000012"
     d="m 332.50847,249.05085 c 0,3.2 -2.4,5.6 -5.6,5.6 h -12.8 c -3.2,0 -5.6,-2.4 -5.6,-5.6 v 0 c 0,-3.2 2.4,-5.6 5.6,-5.6 h 12.8 c 3.2,0 5.6,2.4 5.6,5.6 z"
     data-original="#8E8E8E"
     id="path142"
     inkscape:connector-curvature="0" /><circle
     style="fill:#ff6600;fill-opacity:1;stroke:#ff6600;stroke-width:0.96875;stroke-opacity:1"
     id="path5069"
     cx="331.9693"
     cy="306.32205"
     r="9.9830513" /><circle
     r="9.9830513"
     cy="306.32205"
     cx="306.7818"
     id="circle5071"
     style="fill:#008000;fill-opacity:1;stroke:#008000;stroke-width:0.96875;stroke-opacity:1" /><circle
     style="fill:#0000ff;fill-opacity:1;stroke:#0000ff;stroke-width:0.96875;stroke-opacity:1"
     id="circle5073"
     cx="281.5943"
     cy="306.32205"
     r="9.9830513" /><circle
     r="9.9830513"
     cy="306.32205"
     cx="256.4068"
     id="circle5075"
     style="fill:#2ad4ff;fill-opacity:1;stroke:#2ad4ff;stroke-width:0.96875;stroke-opacity:1" /><circle
     style="fill:#5500d4;fill-opacity:1;stroke:#5500d4;stroke-width:0.96875;stroke-opacity:1"
     id="circle5077"
     cx="231.2193"
     cy="306.32205"
     r="9.9830513" /><circle
     r="9.9830513"
     cy="306.32205"
     cx="206.0318"
     id="circle5079"
     style="fill:#ffff00;fill-opacity:1;stroke:#ffff00;stroke-width:0.96875;stroke-opacity:1" /><circle
     style="fill:#d400aa;fill-opacity:1;stroke:#d400aa;stroke-width:0.96875;stroke-opacity:1"
     id="circle5081"
     cx="180.8443"
     cy="306.32205"
     r="9.9830513" /></g><g
   inkscape:groupmode="layer"
   id="layer6"
   inkscape:label="Layer 4"><rect
     style="fill:#ffffff;fill-opacity:1;stroke:#ffffff;stroke-width:0.34960327;stroke-opacity:1"
     id="rect5084"
     width="9.0605106"
     height="1.9999758"
     x="173.98244"
     y="301.2337" /></g><rect
   style="fill:#241c1c;stroke-width:1.08045053"
   id="rect237"
   width="160.77963"
   height="81.966103"
   x="131.35594"
   y="156.57628"
   ry="9.4576273" /><polygon
   transform="matrix(0.959789,0,0,1.0268073,-159.04359,-4.586441)"
   style="fill:#81b6c9"
   points="341.6,156.8 318.4,156.8 302.4,172.8 302.4,196 "
   data-original="#81B6C9"
   class=""
   id="polygon134-4" /><path
   style="fill:#d40000;stroke:#d40000;stroke-width:0.96875px;stroke-linecap:butt;stroke-linejoin:miter;stroke-opacity:1;fill-opacity:1"
   d="m 372.59661,128.81356 v 0 0 L 376,136.8 v 0 l -3.40339,3.20001 z"
   id="path5026"
   inkscape:connector-curvature="0" /><rect
   style="fill:#ffffff;fill-opacity:1;stroke:#ffffff;stroke-width:0.34960327;stroke-opacity:1"
   id="rect5084-2"
   width="9.0605106"
   height="1.9999759"
   x="301.46338"
   y="-186.93431"
   transform="rotate(90)" /><rect
   style="fill:#ffffff;fill-opacity:1;stroke:#ffffff;stroke-width:0.34960327;stroke-opacity:1"
   id="rect5084-6"
   width="9.0605106"
   height="1.9999759"
   x="177.52907"
   y="311.52863" /><rect
   style="fill:#ffffff;fill-opacity:1;stroke:#ffffff;stroke-width:0.34960327;stroke-opacity:1"
   id="rect5084-0"
   width="9.0605106"
   height="1.9999759"
   x="304.61591"
   y="-176.72139"
   transform="rotate(90)" /><rect
   style="fill:#ffffff;fill-opacity:1;stroke:#ffffff;stroke-width:0.37735727;stroke-opacity:1"
   id="rect5084-2-4"
   width="10.556189"
   height="1.9999759"
   x="-286.63504"
   y="-309.84741"
   transform="scale(-1)" /><rect
   style="fill:#ffffff;fill-opacity:1;stroke:#ffffff;stroke-width:0.37735727;stroke-opacity:1"
   id="rect5084-2-4-0"
   width="10.55619"
   height="1.9999759"
   x="-286.60965"
   y="-304.26801"
   transform="scale(-1)" /><rect
   style="fill:#ffffff;fill-opacity:1;stroke:#ffffff;stroke-width:0.37735727;stroke-opacity:1"
   id="rect5084-2-4-3"
   width="10.55619"
   height="1.9999759"
   x="-310.68063"
   y="252.58264"
   transform="rotate(-90)" /><rect
   style="fill:#ffffff;fill-opacity:1;stroke:#ffffff;stroke-width:0.25726399;stroke-opacity:1"
   id="rect5084-2-4-2"
   width="4.9063635"
   height="1.9999759"
   x="-261.28931"
   y="-306.66522"
   transform="scale(-1)" /><rect
   style="fill:#ffffff;fill-opacity:1;stroke:#ffffff;stroke-width:0.43087178;stroke-opacity:1"
   id="rect5084-2-4-26"
   width="13.762516"
   height="1.9999759"
   x="-312.67194"
   y="304.92798"
   transform="rotate(-90)" /><rect
   style="fill:#ffffff;fill-opacity:1;stroke:#ffffff;stroke-width:0.17784506;stroke-opacity:1"
   id="rect5084-2-4-2-8"
   width="2.3446894"
   height="1.9999759"
   x="-311.66479"
   y="-307.22351"
   transform="scale(-1)" /><rect
   transform="scale(-1)"
   y="-307.22351"
   x="-303.91479"
   height="1.9999759"
   width="2.3446894"
   id="rect5206"
   style="fill:#ffffff;fill-opacity:1;stroke:#ffffff;stroke-width:0.17784506;stroke-opacity:1" /><rect
   style="fill:#ffffff;fill-opacity:1;stroke:#ffffff;stroke-width:0.25726399;stroke-opacity:1"
   id="rect5084-2-4-2-0"
   width="4.9063635"
   height="1.9999759"
   x="297.85931"
   y="-332.20392"
   transform="rotate(90)" /><rect
   style="fill:#ffffff;fill-opacity:1;stroke:#ffffff;stroke-width:0.25726399;stroke-opacity:1"
   id="rect5084-2-4-2-0-2"
   width="4.9063635"
   height="1.9999759"
   x="-339.4696"
   y="-307.125"
   transform="scale(-1)" /><rect
   transform="scale(-1)"
   y="-307.125"
   x="-327.8446"
   height="1.9999759"
   width="4.9063635"
   id="rect5250"
   style="fill:#ffffff;fill-opacity:1;stroke:#ffffff;stroke-width:0.25726399;stroke-opacity:1" /><rect
   transform="rotate(90)"
   y="-332.20392"
   x="309.48431"
   height="1.9999759"
   width="4.9063635"
   id="rect5252"
   style="fill:#ffffff;fill-opacity:1;stroke:#ffffff;stroke-width:0.25726399;stroke-opacity:1" /><path
   style="fill:#ffffff;stroke:#ffffff;stroke-width:0.77439678px;stroke-linecap:butt;stroke-linejoin:miter;stroke-opacity:1"
   d="m 224.70612,301.96269 v 10.29364 l 5.53548,-5.41771 z"
   id="path5262"
   inkscape:connector-curvature="0" /><path
   inkscape:connector-curvature="0"
   id="path5264"
   d="m 238.17323,301.96269 v 10.29364 l -5.53548,-5.41771 z"
   style="fill:#ffffff;stroke:#ffffff;stroke-width:0.77439678px;stroke-linecap:butt;stroke-linejoin:miter;stroke-opacity:1" /><ellipse
   style="fill:#ffff00;fill-opacity:1;stroke:#ffffff;stroke-width:2.979875;stroke-miterlimit:4;stroke-dasharray:none;stroke-opacity:1"
   id="path5268"
   cx="205.44066"
   cy="306.58478"
   rx="6.510386"
   ry="6.7730975" /><rect
   style="fill:#ffff00;fill-opacity:1;stroke:#ffffff;stroke-width:0.33759713;stroke-opacity:1"
   id="rect5084-2-4-2-8-2"
   width="4.2866325"
   height="3.9419188"
   x="298.00497"
   y="-207.31313"
   transform="rotate(90)" /></svg>